<?xml version="1.0" standalone="no"?>
<!DOCTYPE svg PUBLIC "-//W3C//DTD SVG 20010904//EN"
 "http://www.w3.org/TR/2001/REC-SVG-20010904/DTD/svg10.dtd">
<svg version="1.0" xmlns="http://www.w3.org/2000/svg"
 width="225.000000pt" height="225.000000pt" viewBox="0 0 225.000000 225.000000"
 preserveAspectRatio="xMidYMid meet">

<g transform="translate(0.000000,225.000000) scale(0.100000,-0.100000)"
fill="#000000" stroke="none">
<path d="M1132 1450 c-164 -17 -274 -52 -419 -131 l-72 -39 -134 0 c-146 0
-195 -11 -254 -56 -27 -21 -31 -28 -23 -44 15 -29 13 -50 -6 -43 -10 4 -14 13
-10 26 3 11 1 16 -3 11 -15 -16 -31 -124 -25 -168 4 -25 2 -52 -5 -64 -13 -24
0 -34 59 -47 19 -4 46 -16 59 -26 l24 -19 -40 0 c-51 0 -103 -10 -103 -20 0
-9 109 -25 320 -45 208 -20 639 -20 701 -1 90 30 315 50 536 49 117 -1 212 2
211 5 -1 4 8 27 20 52 12 25 22 57 22 72 0 26 -22 58 -41 58 -15 0 -10 -19 12
-41 17 -17 19 -25 10 -47 l-11 -27 5 28 c3 17 1 27 -6 27 -8 0 -10 -12 -6 -34
10 -65 -44 -79 -70 -18 -30 73 2 231 49 240 21 4 45 -33 51 -78 2 -19 2 -27 0
-17 -6 25 -25 21 -21 -5 2 -13 11 -24 22 -26 17 -4 18 1 14 61 -3 35 -11 73
-17 83 -12 18 -12 18 -8 -3 4 -19 3 -20 -14 -10 -15 9 -24 9 -41 -2 -21 -13
-22 -13 -10 2 8 9 23 18 35 20 18 4 17 5 -5 6 -19 1 -33 -7 -44 -24 -15 -23
-17 -24 -46 -9 -16 8 -60 18 -97 21 l-68 6 -1 -29 c0 -16 -8 -49 -16 -73 -20
-55 -21 -51 12 -51 41 0 103 -20 97 -31 -4 -5 -16 -9 -28 -8 -21 0 -21 1 -2 8
15 6 11 9 -20 14 -70 12 -78 10 -73 -18 5 -22 2 -25 -21 -24 -17 1 -20 3 -8 6
9 2 17 12 17 22 0 18 -19 18 -155 -3 l-40 -6 42 14 c23 8 67 18 97 21 54 7 55
8 70 53 9 25 16 58 16 74 0 28 0 28 -72 30 -49 1 -58 3 -28 5 82 6 92 11 80
36 -11 21 -10 21 9 -2 20 -22 26 -23 85 -16 48 5 73 2 101 -9 35 -15 40 -15
56 0 11 10 28 15 44 12 29 -6 30 -5 9 16 -14 15 -9 16 58 17 l73 2 -60 7 c-33
4 -92 8 -130 9 -64 1 -74 4 -110 34 l-40 32 45 6 45 6 -54 1 c-44 2 -64 9
-113 42 l-60 40 98 0 c174 0 130 15 -84 28 -312 19 -399 21 -490 12z m288 -15
c0 -3 -15 -11 -32 -18 -18 -8 -58 -39 -89 -69 -59 -59 -105 -77 -150 -59 -19
8 -20 10 -6 10 34 2 87 33 136 80 l48 46 -41 -3 c-121 -9 -318 -34 -366 -47
-72 -19 -75 -12 -6 14 49 18 122 33 211 44 47 6 295 8 295 2z m143 -26 c21 -5
40 -16 43 -24 3 -8 11 -12 18 -9 13 5 117 -64 123 -83 6 -16 -19 -21 -127 -27
l-95 -5 82 17 c45 10 85 20 87 23 3 3 -10 13 -29 24 -19 10 -35 24 -35 31 0 7
-6 11 -14 8 -8 -3 -29 2 -47 11 -25 13 -49 16 -101 13 -37 -3 -68 -3 -68 -1 0
2 15 10 33 18 39 17 79 18 130 4z m-598 -139 c-3 -5 -12 -10 -20 -10 -12 0
-120 -33 -180 -55 -12 -4 -9 1 8 13 l29 19 -26 7 c-42 10 -187 -11 -256 -37
-36 -14 -100 -41 -144 -61 -43 -20 -83 -35 -89 -33 -9 3 33 46 89 94 26 21
-30 -12 -76 -45 l-35 -25 40 42 c73 78 97 85 290 91 314 11 376 10 370 0z
m245 -49 c35 -25 68 -88 75 -141 l5 -45 -22 60 c-47 125 -108 162 -186 115
-24 -15 -43 -42 -72 -103 -40 -86 -51 -91 -24 -10 24 71 54 113 99 134 45 22
86 19 125 -10z m678 12 c-16 -2 -40 -2 -55 0 -16 2 -3 4 27 4 30 0 43 -2 28
-4z m-681 -55 c12 -12 20 -25 17 -30 -4 -5 -16 -1 -28 10 -21 20 -100 36 -89
18 4 -5 -1 -7 -11 -3 -11 5 -15 3 -10 -5 5 -7 3 -8 -6 -3 -9 6 -11 4 -5 -5 6
-9 4 -11 -5 -5 -9 6 -11 4 -5 -5 5 -9 4 -11 -4 -6 -30 19 55 70 99 60 14 -3
35 -15 47 -26z m98 22 c-29 -7 -28 -9 15 -23 11 -4 10 -6 -4 -6 -15 -1 -16 -4
-6 -16 8 -10 9 -15 1 -15 -9 0 -41 50 -41 65 0 3 15 4 33 4 l32 -1 -30 -8z
m-370 -34 c-30 -39 -42 -42 -200 -51 -60 -4 -118 -9 -129 -12 -11 -3 -16 -1
-12 5 5 9 65 31 184 67 6 3 12 0 12 -5 0 -5 -8 -11 -17 -13 -11 -3 -6 -5 11
-6 20 -1 27 3 23 13 -6 15 20 26 62 26 42 0 12 -15 -39 -20 -10 -1 -8 -5 7
-12 17 -8 28 -7 48 6 14 9 25 21 25 26 0 6 11 10 26 10 l25 0 -26 -34z m243
-12 c55 -38 83 -170 52 -249 -28 -74 -89 -104 -139 -69 -54 38 -79 171 -47
249 8 19 11 34 6 32 -4 -1 -7 3 -6 8 0 6 5 9 9 7 5 -1 20 7 34 18 31 24 61 26
91 4z m-302 -103 c-15 -28 -29 -51 -31 -51 -3 0 4 19 16 41 l21 42 -24 -7
c-39 -13 -387 -18 -483 -8 -74 8 -57 9 95 5 187 -5 395 8 414 27 20 20 17 0
-8 -49z m-56 -41 c0 -16 -37 -27 -110 -33 l-65 -6 85 23 c47 13 86 25 88 25 1
1 2 -4 2 -9z m-380 -39 c73 -7 110 -17 160 -40 61 -29 72 -31 190 -32 161 -2
112 -16 -60 -18 l-124 -1 -36 35 -36 36 -149 14 c-139 13 -151 13 -169 -3 -18
-16 -18 -16 -7 6 13 25 -3 25 231 3z m1273 2 c-7 -2 -19 -2 -25 0 -7 3 -2 5
12 5 14 0 19 -2 13 -5z"/>
<path d="M1138 1193 c7 -3 16 -2 19 1 4 3 -2 6 -13 5 -11 0 -14 -3 -6 -6z"/>
<path d="M1195 1170 c10 -11 20 -20 23 -20 3 0 -3 9 -13 20 -10 11 -20 20 -23
20 -3 0 3 -9 13 -20z"/>
<path d="M1117 1134 c-3 -3 -1 -17 6 -31 l11 -24 13 23 c11 20 12 18 6 -24 -3
-27 -3 -48 0 -48 4 0 16 17 27 38 l20 37 -6 -42 c-6 -39 -5 -43 15 -43 25 0
27 19 6 60 -23 45 -77 75 -98 54z"/>
<path d="M1082 1099 c-11 -17 -10 -25 3 -45 30 -47 46 -23 22 34 -12 30 -13
30 -25 11z"/>
<path d="M1057 1025 c-7 -45 -3 -53 18 -35 19 15 19 31 2 55 -13 16 -14 15
-20 -20z"/>
<path d="M1150 1005 c0 -10 55 -54 68 -55 6 0 12 11 12 24 0 16 -7 26 -22 30
-29 7 -58 8 -58 1z"/>
<path d="M1071 951 c-8 -5 -11 -16 -8 -26 8 -19 22 -13 37 16 12 21 -3 26 -29
10z"/>
<path d="M1143 905 c8 -54 13 -63 27 -49 14 14 -2 86 -19 92 -11 4 -13 -5 -8
-43z"/>
<path d="M1184 924 c3 -9 6 -25 6 -37 1 -22 1 -22 15 -3 22 29 19 56 -6 56
-15 0 -19 -4 -15 -16z"/>
<path d="M1102 903 l-24 -18 21 -19 c26 -24 33 -17 29 24 l-3 32 -23 -19z"/>
<path d="M1934 1089 c3 -17 6 -37 6 -43 1 -6 7 3 14 19 15 34 11 55 -11 55
-12 0 -14 -7 -9 -31z m13 -1 c-3 -8 -6 -5 -6 6 -1 11 2 17 5 13 3 -3 4 -12 1
-19z"/>
<path d="M1900 1074 c-13 -32 -13 -67 -1 -60 5 3 7 16 4 29 -4 18 -3 19 6 7 8
-12 11 -8 11 18 0 39 -7 41 -20 6z"/>
<path d="M1890 964 c0 -8 5 -12 10 -9 6 3 10 10 10 16 0 5 -4 9 -10 9 -5 0
-10 -7 -10 -16z"/>
<path d="M1933 930 c0 -25 2 -35 4 -22 2 12 2 32 0 45 -2 12 -4 2 -4 -23z"/>
<path d="M1903 939 c-7 -9 -9 -20 -3 -29 12 -19 22 -7 18 21 -2 19 -5 20 -15
8z"/>
</g>
</svg>
